<svg id="visual" viewBox="0 0 900 600" width="900" height="600" xmlns="http://www.w3.org/2000/svg" xmlns:xlink="http://www.w3.org/1999/xlink" version="1.1"><g><g transform="translate(479 515)"><path d="M82 -89.9C109 -75.2 135.3 -51.8 144.7 -22C154.2 7.8 146.8 44.2 129 74C111.2 103.9 83 127.2 51.4 136.8C19.8 146.3 -15.2 142.1 -42.4 127.4C-69.6 112.8 -89 87.7 -110.2 59.5C-131.4 31.3 -154.5 0 -154.3 -31.8C-154.1 -63.5 -130.8 -95.8 -101.2 -110C-71.6 -124.3 -35.8 -120.7 -4.1 -115.8C27.5 -110.8 55.1 -104.7 82 -89.9Z" fill="#6600FF"></path></g><g transform="translate(846 295)"><path d="M96.9 -112.1C126.3 -90.9 151.1 -61 159.9 -26C168.6 8.9 161.2 48.9 139.9 76.1C118.6 103.4 83.4 118 51.2 121.2C19 124.5 -10.2 116.4 -38.1 105.7C-66 95.1 -92.5 81.9 -107.3 60.1C-122.1 38.3 -125.1 7.9 -118.5 -19.4C-111.9 -46.7 -95.7 -70.7 -74.4 -93.3C-53 -115.9 -26.5 -136.9 3.6 -141.2C33.8 -145.6 67.6 -133.2 96.9 -112.1Z" fill="#6600FF"></path></g><g transform="translate(82 62)"><path d="M93.4 -105.8C118.8 -90 135.6 -58.4 133.1 -29.8C130.7 -1.1 109.1 24.7 91.8 51.4C74.5 78.2 61.6 105.9 39.3 118.6C17.1 131.2 -14.4 128.7 -44.4 119.1C-74.3 109.4 -102.7 92.5 -112.2 68.4C-121.8 44.4 -112.6 13.1 -106.5 -18.3C-100.4 -49.7 -97.4 -81.1 -80.2 -98.3C-62.9 -115.6 -31.5 -118.7 1.3 -120.2C34 -121.7 68 -121.6 93.4 -105.8Z" fill="#6600FF"></path></g></g></svg>