<svg width="512" height="512" viewBox="0 0 512 512" fill="none" xmlns="http://www.w3.org/2000/svg">
<g filter="url(#filter0_d_226_470)">
<path d="M128.308 236.877V145.581H161.002V111.653H356.549V145.581H388.626V236.877L392.945 243.663C399.319 236.055 416.015 222.442 431.807 228.858C447.599 235.273 446.612 256.617 444.145 266.487C452.164 261.141 470.67 254.273 480.54 269.571C490.41 284.869 482.185 297.33 476.839 301.648C483.624 305.349 497.319 315.466 497.812 326.323C498.306 337.18 481.568 342.773 473.137 344.212H404.665C402.198 351.614 394.425 365.802 383.075 363.335C371.724 360.867 367.242 349.558 366.419 344.212H346.68C349.969 346.474 356.549 353.465 356.549 363.335C356.549 373.205 342.567 379.373 335.576 381.224H133.243L183.826 358.4L173.34 344.212H145.581C145.581 350.381 142.126 362.841 128.308 363.335C114.491 363.828 108.569 352.848 107.335 347.296H16.6554L66.0048 326.323C59.6305 317.481 48.4857 296.466 54.9011 283.142C61.3166 269.818 79.3702 272.655 87.5951 275.74C85.9501 271.422 85.6212 259.701 97.465 247.364C109.309 235.026 122.962 235.232 128.308 236.877Z" fill="#E101B0"/>
</g>
<path d="M124.607 383.6L175.19 359.543C140.029 331.167 172.106 296.005 199.865 306.492C188.145 270.633 233.793 253.361 251.065 279.269C264.019 245.342 320.154 264.465 305.349 300.243C330.024 284.821 360.251 313.814 339.894 338.489C358.4 342.807 362.196 356.378 359.634 367.481C357.071 378.585 340.922 384.012 333.108 383.6H264.019H124.607Z" fill="#CDE6EC"/>
<rect x="128.308" y="145.581" width="65.3879" height="34.5446" fill="#9C7A7A"/>
<rect x="259.084" y="145.581" width="65.3879" height="34.5446" fill="#956F6F"/>
<rect x="324.472" y="145.581" width="65.3879" height="34.5446" fill="#B07E7E"/>
<rect x="160.386" y="180.125" width="65.3879" height="34.5446" fill="#C69595"/>
<rect x="225.774" y="180.125" width="65.3879" height="34.5446" fill="#B07E7E"/>
<rect x="291.161" y="180.125" width="65.3879" height="34.5446" fill="#8C5252"/>
<rect x="128.308" y="214.67" width="65.3879" height="34.5446" fill="#8C5151"/>
<rect x="193.696" y="214.67" width="65.3879" height="34.5446" fill="#956F6F"/>
<rect x="259.084" y="214.67" width="65.3879" height="34.5446" fill="#B18F8F"/>
<rect x="324.472" y="214.67" width="65.3879" height="34.5446" fill="#956F6F"/>
<rect x="160.386" y="249.214" width="65.3879" height="34.5446" fill="#B07E7E"/>
<rect x="225.774" y="249.214" width="65.3879" height="34.5446" fill="#D88F8F"/>
<rect x="291.161" y="249.214" width="65.3879" height="34.5446" fill="#B07E7E"/>
<rect x="160.386" y="111.036" width="65.3879" height="34.5446" fill="#B07E7E"/>
<rect x="225.774" y="111.036" width="65.3879" height="34.5446" fill="#8C5252"/>
<rect x="291.161" y="111.036" width="65.3879" height="34.5446" fill="#B29A9A"/>
<rect x="356.549" y="180.125" width="33.3108" height="34.5446" fill="#B29A9A"/>
<rect x="128.308" y="180.125" width="32.0771" height="34.5446" fill="#B07E7E"/>
<rect x="128.308" y="249.214" width="32.0771" height="34.5446" fill="#8E5D5D"/>
<rect x="356.549" y="249.214" width="32.0771" height="34.5446" fill="#BE5E5E"/>
<rect x="193.696" y="145.581" width="65.3879" height="34.5446" fill="#BA8F8F"/>
<path d="M183.21 180.125L155.451 145.581H128.308V283.759H217.754V274.506L197.398 249.214H211.586L183.21 214.67H197.398L167.171 180.125H183.21Z" fill="black" fill-opacity="0.29"/>
<path d="M165.937 111.036H160.386V145.581H191.229L165.937 111.036Z" fill="black" fill-opacity="0.29"/>
<g filter="url(#filter1_i_226_470)">
<path d="M234.41 230.708C234.41 216.4 246.009 204.8 260.318 204.8C274.627 204.8 286.227 216.4 286.227 230.708V268.954H234.41V230.708Z" fill="#311111"/>
</g>
<path d="M8.63611 349.844L59.2192 325.786C24.0578 297.41 56.1349 262.249 83.8939 272.736C79.7973 227.088 150.516 215.287 158.535 268.337C184.443 243.663 229.475 264.019 214.67 304.116C233.176 301.648 241.689 305.553 241.195 325.786C240.702 346.02 224.951 350.255 217.137 349.844H148.048C148.048 357.863 143.73 368.35 127.075 368.35C110.419 368.35 106.101 356.424 105.484 349.844H8.63611Z" fill="#CDE6EC"/>
<path d="M8.63611 349.844L59.2192 325.786C37.012 297.33 82.0433 280.675 90.6795 308.434C107.952 280.675 150.516 296.713 145.581 323.239C181.359 308.434 197.43 334.096 217.137 349.844H148.048C148.048 357.863 143.73 368.35 127.075 368.35C110.419 368.35 106.101 356.424 105.484 349.844H8.63611Z" fill="#93B7C2"/>
<path d="M266.487 345.355L317.07 321.297C281.908 292.921 313.986 257.759 341.745 268.246C330.024 232.388 375.672 215.115 392.945 241.024C405.899 207.096 462.034 226.219 447.229 261.997C471.904 246.576 502.13 275.568 481.774 300.243C500.28 304.561 504.076 318.132 501.513 329.236C498.951 340.339 482.802 345.766 474.988 345.355H405.899C405.899 353.374 398.496 365.014 384.925 365.014C371.354 365.014 363.335 352.677 363.335 345.355H266.487Z" fill="#CDE6EC"/>
<path d="M266.487 345.354L317.07 321.297C294.863 293.629 330.641 271.422 350.998 282.525C368.27 250.448 417.002 271.422 408.983 302.265C431.807 286.843 457.716 305.966 449.696 330.024C468.202 330.024 474.988 345.354 474.988 345.354H405.899C405.899 353.374 398.496 365.014 384.925 365.014C371.354 365.014 363.335 352.677 363.335 345.354H266.487Z" fill="#93B7C2"/>
<rect x="217.137" y="268.954" width="86.3614" height="20.9735" fill="#87646C"/>
<rect x="208.501" y="289.928" width="104.867" height="20.9735" fill="#704C55"/>
<rect x="198.631" y="310.901" width="123.373" height="20.9735" fill="#5E3740"/>
<path d="M222.072 268.954H217.137V289.928H241.812L222.072 268.954Z" fill="black" fill-opacity="0.29"/>
<path d="M223.923 289.928H208.501V310.901H243.663L223.923 289.928Z" fill="black" fill-opacity="0.29"/>
<path d="M228.241 310.901H198.631V331.875H247.981L228.241 310.901Z" fill="black" fill-opacity="0.29"/>
<path d="M124.607 383.6L175.19 359.542C154.834 336.81 175.19 309.051 201.716 318.92C212.202 293.629 250.448 298.564 248.598 326.94C261.552 313.369 283.142 323.855 279.441 343.595C293.629 336.193 306.583 347.913 301.031 363.952C315.836 360.776 330.641 371.354 333.108 383.6H264.019H124.607Z" fill="#93B7C2"/>
<defs>
<filter id="filter0_d_226_470" x="6.6554" y="101.653" width="501.167" height="289.571" filterUnits="userSpaceOnUse" color-interpolation-filters="sRGB">
<feFlood flood-opacity="0" result="BackgroundImageFix"/>
<feColorMatrix in="SourceAlpha" type="matrix" values="0 0 0 0 0 0 0 0 0 0 0 0 0 0 0 0 0 0 127 0" result="hardAlpha"/>
<feOffset/>
<feGaussianBlur stdDeviation="5"/>
<feComposite in2="hardAlpha" operator="out"/>
<feColorMatrix type="matrix" values="0 0 0 0 0 0 0 0 0 0 0 0 0 0 0 0 0 0 0.25 0"/>
<feBlend mode="normal" in2="BackgroundImageFix" result="effect1_dropShadow_226_470"/>
<feBlend mode="normal" in="SourceGraphic" in2="effect1_dropShadow_226_470" result="shape"/>
</filter>
<filter id="filter1_i_226_470" x="234.41" y="204.8" width="51.8169" height="64.1542" filterUnits="userSpaceOnUse" color-interpolation-filters="sRGB">
<feFlood flood-opacity="0" result="BackgroundImageFix"/>
<feBlend mode="normal" in="SourceGraphic" in2="BackgroundImageFix" result="shape"/>
<feColorMatrix in="SourceAlpha" type="matrix" values="0 0 0 0 0 0 0 0 0 0 0 0 0 0 0 0 0 0 127 0" result="hardAlpha"/>
<feOffset/>
<feGaussianBlur stdDeviation="3"/>
<feComposite in2="hardAlpha" operator="arithmetic" k2="-1" k3="1"/>
<feColorMatrix type="matrix" values="0 0 0 0 1 0 0 0 0 1 0 0 0 0 1 0 0 0 0.25 0"/>
<feBlend mode="normal" in2="shape" result="effect1_innerShadow_226_470"/>
</filter>
</defs>
</svg>
